<svg xmlns="http://www.w3.org/2000/svg" xmlns:xlink="http://www.w3.org/1999/xlink" aria-hidden="true" role="img" class="iconify iconify--logos" width="37" height="36" viewBox="0 0 256 257"><defs><linearGradient id="IconifyId1813088fe1fbc01fb462" x1="-.828%" x2="57.636%" y1="7.652%" y2="78.411%"><stop offset="0%" stop-color="#41D1FF"></stop><stop offset="100%" stop-color="#BD34FE"></stop></linearGradient><linearGradient id="IconifyId1813088fe1fbc01fb463" x1="43.376%" x2="50.316%" y1="2.242%" y2="89.03%"><stop offset="0%" stop-color="#FFEA83"></stop><stop offset="8.333%" stop-color="#FFDD35"></stop><stop offset="100%" stop-color="#FFA800"></stop></linearGradient></defs><path fill="url(#IconifyId1813088fe1fbc01fb462)" d="m255.153 37.938l-14.163-.98c-3.999-.277-7.914-1.729-11.23-4.219a21.285 21.285 0 0 1-6.849-9.921c-1.101-3.438-1.469-7.08-1.387-10.662c.025-1.073.012-2.149-.037-3.22L221.219.818C220.78-.262 219.759-.466 219.06.262c-.277.316-.51.688-.687 1.094c-1.783 3.864-3.853 7.581-6.173 11.108c-5.268 7.88-12.124 14.436-20.446 19.228c-8.605 4.949-18.297 7.578-28.168 7.644h-.035c-9.868-.066-19.553-2.695-28.15-7.644c-8.322-4.792-15.178-11.349-20.445-19.228c-2.321-3.527-4.391-7.244-6.174-11.108a2.977 2.977 0 0 0-.686-1.094c-.699-.728-1.72-.524-2.16.558l-.318 1.028c-.05.162-.091.326-.123.492l-.397 2.946c-.076 1.073-.089 2.149-.038 3.222c.082 3.582-.286 7.224-1.387 10.662a21.285 21.285 0 0 1-6.849 9.92c-3.316 2.491-7.23 3.943-11.23 4.22l-14.154.98c-1.948.135-3.48 1.846-3.48 3.832v1.22c0 9.743 3.142 19.18 8.975 26.924c5.833 7.744 14.055 13.22 23.322 15.532l.841.213c8.433 2.123 17.35 1.551 25.483-1.48l.06-.023c.09-.03.18-.058.27-.084l.269-.08c.36-.108.724-.206 1.09-.293a48.297 48.297 0 0 1 10.965-1.268h.035c3.738 0 7.463.437 11.065 1.29c.366.086.73.184 1.09.293c.09.026.18.054.27.084l.06.023c8.133 3.03 17.05 3.602 25.483 1.48l.841-.213c9.267-2.313 17.489-7.788 23.322-15.532c5.833-7.744 8.975-17.181 8.975-26.924v-1.22c0-1.986-1.532-3.697-3.48-3.832Z"></path><path fill="url(#IconifyId1813088fe1fbc01fb463)" d="m134.834 245.385l-.034-.011a48.268 48.268 0 0 1-10.965-1.268a50.881 50.881 0 0 1-12.155-4.16c-1.417-.647-2.864-1.218-4.335-1.71c-1.47-.493-2.967-.913-4.486-1.26c-3.038-.683-6.135-1.027-9.24-1.027h-.035c-3.107 0-6.204.344-9.242 1.027c-1.519.347-3.016.767-4.486 1.26c-1.471.492-2.918 1.063-4.335 1.71a50.868 50.868 0 0 1-12.155 4.16a48.27 48.27 0 0 1-10.965 1.268a48.4 48.4 0 0 1-10.967-1.268a51.01 51.01 0 0 1-12.156-4.16c-1.418-.647-2.864-1.218-4.335-1.71c-1.47-.493-2.967-.913-4.486-1.26c-3.038-.683-6.135-1.027-9.24-1.027h-.035c-3.107 0-6.204.344-9.242 1.027c-1.519.347-3.016.767-4.486 1.26c-1.471.492-2.918 1.063-4.335 1.71a50.868 50.868 0 0 1-12.155 4.16a48.27 48.27 0 0 1-10.965 1.268a48.4 48.4 0 0 1-10.967-1.268a51.01 51.01 0 0 1-12.156-4.16c-1.418-.647-2.864-1.218-4.335-1.71c-1.47-.493-2.967-.913-4.486-1.26C3.204 236.344.107 236 0 236v-17.984c3.306.126 6.199 1.681 8.947 4.662c2.748 2.98 5.164 6.622 7.25 10.926c2.086 4.304 3.744 8.924 4.976 13.86c1.23 4.935 1.856 9.384 1.877 13.346c.021 3.96-.556 7.038-1.731 9.233c-1.174 2.195-2.65 3.293-4.423 3.293c-1.773 0-3.25-.494-4.424-1.48c-1.175-.987-1.76-2.966-1.76-5.933c0-1.986-1.532-3.697-3.48-3.832l-14.163-.98c-1.948-.135-3.48-1.846-3.48-3.832v-1.22c0-9.743 3.142-19.18 8.975-26.924c5.833-7.744 14.055-13.22 23.322-15.532l.841-.213c8.433-2.123 17.35-1.551 25.483 1.48l.06.023c.09.03.18.058.27.084l.269.08c.36.108.724.206 1.09.293a48.297 48.297 0 0 1 10.965 1.268h.035c3.738 0 7.463-.437 11.065-1.29c.366-.086.73-.184 1.09-.293c.09-.026.18-.054.27-.084l.06-.023c8.133-3.03 17.05-3.602 25.483-1.48l.841.213c9.267 2.313 17.489 7.788 23.322 15.532c5.833 7.744 8.975 17.181 8.975 26.924v1.22c0 1.986-1.532 3.697-3.48 3.832l-14.154.98c-1.948.135-3.48 1.846-3.48 3.832c0 2.967-.585 4.946-1.76 5.933c-1.174.986-2.65 1.48-4.423 1.48c-1.773 0-3.25-.494-4.424-1.48c-1.175-.987-1.76-2.966-1.76-5.933c-.021-3.962.647-8.411 1.877-13.346c1.23-4.936 2.89-9.556 4.976-13.86c2.086-4.304 4.502-7.946 7.25-10.926c2.748-2.981 5.64-4.536 8.947-4.662V236c-.107 0-3.204.344-6.242 1.027c-1.519.347-3.016.767-4.486 1.26c-1.471.492-2.918 1.063-4.335 1.71a50.868 50.868 0 0 1-12.155 4.16a48.27 48.27 0 0 1-10.965 1.268Z"></path></svg>